<svg width="3619" height="779" viewBox="0 0 3619 779" fill="none" xmlns="http://www.w3.org/2000/svg">
<g clip-path="url(#clip0_2018_2)">
<mask id="path-1-inside-1_2018_2" fill="white">
<path d="M341.421 332.579C374.14 365.297 394.502 408.348 399.037 454.397C403.572 500.445 392.001 546.641 366.294 585.114C340.587 623.587 302.335 651.956 258.057 665.388C213.778 678.82 166.212 676.483 123.463 658.776C80.7143 641.069 45.4277 609.087 23.6157 568.279C1.80369 527.472 -5.1841 480.364 3.84297 434.982C12.87 389.6 37.3534 348.752 73.1214 319.398C108.889 290.044 153.729 274 200 274L200 334C167.61 334 136.223 345.231 111.185 365.778C86.1474 386.326 69.009 414.92 62.6901 446.687C56.3711 478.455 61.2626 511.43 76.531 539.995C91.7994 568.561 116.5 590.948 146.424 603.343C176.348 615.738 209.645 617.374 240.64 607.972C271.635 598.569 298.411 578.711 316.406 551.78C334.401 524.849 342.501 492.511 339.326 460.278C336.151 428.044 321.898 397.908 298.995 375.005L341.421 332.579Z"/>
</mask>
<path d="M341.421 332.579C374.14 365.297 394.502 408.348 399.037 454.397C403.572 500.445 392.001 546.641 366.294 585.114C340.587 623.587 302.335 651.956 258.057 665.388C213.778 678.82 166.212 676.483 123.463 658.776C80.7143 641.069 45.4277 609.087 23.6157 568.279C1.80369 527.472 -5.1841 480.364 3.84297 434.982C12.87 389.6 37.3534 348.752 73.1214 319.398C108.889 290.044 153.729 274 200 274L200 334C167.61 334 136.223 345.231 111.185 365.778C86.1474 386.326 69.009 414.92 62.6901 446.687C56.3711 478.455 61.2626 511.43 76.531 539.995C91.7994 568.561 116.5 590.948 146.424 603.343C176.348 615.738 209.645 617.374 240.64 607.972C271.635 598.569 298.411 578.711 316.406 551.78C334.401 524.849 342.501 492.511 339.326 460.278C336.151 428.044 321.898 397.908 298.995 375.005L341.421 332.579Z" fill="#83D5C6" stroke="#83D5C6" stroke-width="2" mask="url(#path-1-inside-1_2018_2)"/>
<path d="M33.5 433L200 536L460 131M492 252L460 131L339 163" stroke="#83D5C6" stroke-width="50"/>
<path d="M682.7 640.46C664.113 640.46 647.453 638.533 632.72 634.68C617.987 630.827 604.273 625.613 591.58 619.04C579.113 612.467 568.913 605.553 560.98 598.3C553.047 591.047 549.08 587.42 549.08 587.42L592.94 532C592.94 532 596.793 535.06 604.5 541.18C612.207 547.3 620.027 552.513 627.96 556.82C636.12 560.9 644.053 563.96 651.76 566C659.693 568.04 668.42 569.06 677.94 569.06C704.913 569.06 725.427 560.56 739.48 543.56C753.533 526.56 760.56 501.4 760.56 468.08V147.12H834V480.32C834 530.187 820.173 569.4 792.52 597.96C764.867 626.293 728.26 640.46 682.7 640.46ZM893.643 634V582.66L1159.86 215.12H900.783V147.12H1254.72V198.12L988.503 566H1258.46V634H893.643ZM1468.64 640.46C1419.45 640.46 1379.1 627.427 1347.6 601.36C1316.09 575.067 1300.34 541.293 1300.34 500.04C1300.34 469.213 1309.52 442.127 1327.88 418.78C1346.24 395.433 1368 380.247 1393.16 373.22C1371.85 365.06 1354.62 352.14 1341.48 334.46C1328.33 316.553 1321.76 294.34 1321.76 267.82C1321.76 229.74 1335.24 199.027 1362.22 175.68C1389.42 152.333 1424.89 140.66 1468.64 140.66C1512.38 140.66 1547.74 152.22 1574.72 175.34C1601.92 198.46 1615.52 228.947 1615.52 266.8C1615.52 294 1608.94 316.553 1595.8 334.46C1582.65 352.14 1565.42 365.06 1544.12 373.22C1569.28 380.247 1591.04 395.433 1609.4 418.78C1627.76 442.127 1636.94 469.213 1636.94 500.04C1636.94 541.067 1621.18 574.727 1589.68 601.02C1558.17 627.313 1517.82 640.46 1468.64 640.46ZM1468.64 580.62C1498.78 580.62 1523.26 572.573 1542.08 556.48C1561.12 540.16 1570.64 519.08 1570.64 493.24C1570.64 467.173 1561.12 445.867 1542.08 429.32C1523.26 412.773 1498.78 404.5 1468.64 404.5C1438.49 404.5 1413.9 412.773 1394.86 429.32C1376.04 445.867 1366.64 467.173 1366.64 493.24C1366.64 519.08 1376.04 540.16 1394.86 556.48C1413.9 572.573 1438.49 580.62 1468.64 580.62ZM1468.64 347.38C1494.93 347.38 1515.44 340.467 1530.18 326.64C1544.91 312.587 1552.28 294.793 1552.28 273.26C1552.28 251.5 1544.57 233.82 1529.16 220.22C1513.97 206.62 1493.8 199.82 1468.64 199.82C1443.48 199.82 1423.19 206.62 1407.78 220.22C1392.59 233.82 1385 251.5 1385 273.26C1385 294.793 1392.36 312.587 1407.1 326.64C1421.83 340.467 1442.34 347.38 1468.64 347.38Z" fill="#83D5C6"/>
<path d="M1859.89 634V147.12H2062.53C2107.18 147.12 2142.88 158.34 2169.63 180.78C2196.6 202.993 2210.09 232.12 2210.09 268.16C2210.09 296.267 2202.84 320.52 2188.33 340.92C2173.82 361.093 2154.22 374.693 2129.51 381.72C2159.88 388.067 2183.8 401.44 2201.25 421.84C2218.93 442.013 2227.77 466.607 2227.77 495.62C2227.77 535.287 2214.4 568.267 2187.65 594.56C2160.9 620.853 2125.66 634 2081.91 634H1859.89ZM1935.03 572.12H2065.59C2090.75 572.12 2111.6 564.527 2128.15 549.34C2144.7 533.927 2152.97 514.547 2152.97 491.2C2152.97 469.213 2144.47 451.193 2127.47 437.14C2110.47 422.86 2088.82 415.72 2062.53 415.72H1912.59V358.6H2058.79C2081.91 358.6 2100.72 351.46 2115.23 337.18C2129.74 322.673 2136.99 304.653 2136.99 283.12C2136.99 260.453 2129.06 242.433 2113.19 229.06C2097.32 215.687 2075.9 209 2048.93 209H1935.03V572.12ZM2289.4 634V147.12H2358.42V634H2289.4ZM2599.03 640.46C2546.22 640.46 2502.02 622.327 2466.43 586.06C2431.07 549.793 2413.39 506.16 2413.39 455.16C2413.39 404.387 2431.07 360.867 2466.43 324.6C2502.02 288.107 2546.22 269.86 2599.03 269.86C2651.84 269.86 2696.16 288.107 2731.97 324.6C2767.78 360.867 2785.69 404.387 2785.69 455.16C2785.69 506.16 2767.78 549.793 2731.97 586.06C2696.16 622.327 2651.84 640.46 2599.03 640.46ZM2599.37 574.84C2631.33 574.84 2658.98 563.393 2682.33 540.5C2705.68 517.607 2717.35 489.16 2717.35 455.16C2717.35 421.16 2705.68 392.827 2682.33 370.16C2658.98 347.267 2631.33 335.82 2599.37 335.82C2567.18 335.82 2539.53 347.267 2516.41 370.16C2493.29 392.827 2481.73 421.16 2481.73 455.16C2481.73 489.16 2493.29 517.607 2516.41 540.5C2539.53 563.393 2567.18 574.84 2599.37 574.84ZM3004.45 769.66C2975.66 769.66 2950.73 766.373 2929.65 759.8C2908.57 753.227 2890.32 744.047 2874.91 732.26C2859.5 720.7 2847.37 708.12 2838.53 694.52C2829.69 681.147 2825.27 674.46 2825.27 674.46L2881.71 642.84C2881.71 642.84 2885.34 648.053 2892.59 658.48C2899.84 669.133 2908.23 678.313 2917.75 686.02C2927.27 693.953 2938.94 700.073 2952.77 704.38C2966.6 708.913 2983.71 711.18 3004.11 711.18C3041.74 711.18 3070.75 700.98 3091.15 680.58C3111.55 660.18 3121.75 632.753 3121.75 598.3V567.7H3121.41C3111.21 582.66 3095.23 596.373 3073.47 608.84C3051.71 621.307 3023.6 627.54 2989.15 627.54C2941.78 627.54 2901.54 610.313 2868.45 575.86C2835.36 541.18 2818.81 499.133 2818.81 449.72C2818.81 399.853 2835.02 357.467 2867.43 322.56C2900.07 287.427 2943.59 269.86 2997.99 269.86C3025.42 269.86 3050.69 275.753 3073.81 287.54C3097.16 299.1 3113.93 313.04 3124.13 329.36H3141.13L3124.13 353.16V276.32H3190.43V591.5C3190.43 646.353 3174.22 689.76 3141.81 721.72C3109.62 753.68 3063.84 769.66 3004.45 769.66ZM3005.47 568.38C3039.24 568.38 3067.58 557.727 3090.47 536.42C3113.59 514.887 3124.92 485.987 3124.47 449.72C3124.24 413.907 3112.8 385.233 3090.13 363.7C3067.46 342.167 3039.13 331.4 3005.13 331.4C2970.9 331.4 2942.68 342.507 2920.47 364.72C2898.26 386.707 2887.15 415.04 2887.15 449.72C2887.15 484.853 2898.37 513.413 2920.81 535.4C2943.25 557.387 2971.47 568.38 3005.47 568.38ZM3388.6 640.46C3362.99 640.46 3341.34 637.4 3323.66 631.28C3305.98 625.16 3290.79 616.433 3278.1 605.1C3265.63 593.767 3255.89 581.753 3248.86 569.06C3241.83 556.14 3238.32 549.68 3238.32 549.68L3291.36 522.82C3291.36 522.82 3294.31 527.693 3300.2 537.44C3306.32 547.187 3313.12 555.687 3320.6 562.94C3328.08 569.967 3337.26 575.633 3348.14 579.94C3359.25 584.02 3372.96 586.06 3389.28 586.06C3408.77 586.06 3425.09 581.753 3438.24 573.14C3451.39 564.527 3457.96 553.08 3457.96 538.8C3457.96 522.707 3452.29 510.92 3440.96 503.44C3429.85 495.733 3408.89 488.027 3378.06 480.32C3330.23 468.533 3297.37 454.253 3279.46 437.48C3261.78 420.48 3252.94 398.72 3252.94 372.2C3252.94 340.92 3265.52 316.1 3290.68 297.74C3315.84 279.153 3348.14 269.86 3387.58 269.86C3407.07 269.86 3423.85 272.127 3437.9 276.66C3451.95 280.967 3464.42 287.653 3475.3 296.72C3486.18 305.56 3495.59 315.76 3503.52 327.32C3511.45 338.653 3515.42 344.32 3515.42 344.32L3465.78 374.92C3465.78 374.92 3463.06 371.067 3457.62 363.36C3452.41 355.653 3446.17 348.853 3438.92 342.96C3431.89 336.84 3423.96 332.307 3415.12 329.36C3406.51 326.413 3396.42 324.94 3384.86 324.94C3364.46 324.94 3348.48 329.133 3336.92 337.52C3325.36 345.68 3319.58 355.88 3319.58 368.12C3319.58 383.08 3326.15 394.187 3339.3 401.44C3352.67 408.693 3374.55 415.947 3404.92 423.2C3448.21 433.627 3479.04 446.773 3497.4 462.64C3515.99 478.28 3525.28 502.193 3525.28 534.38C3525.28 567.927 3512.59 593.993 3487.2 612.58C3461.81 631.167 3428.95 640.46 3388.6 640.46Z" fill="#ACCAE5"/>
</g>
<defs>
<clipPath id="clip0_2018_2">
<rect width="3619" height="779" fill="white"/>
</clipPath>
</defs>
</svg>
